<svg width="480" height="219" viewBox="0 0 480 219" fill="none" xmlns="http://www.w3.org/2000/svg">
<path d="M240 1C204.711 1 176 29.711 176 64.9999C176 100.289 204.711 129 240 129C275.289 129 304 100.289 304 64.9999C304 29.711 275.289 1 240 1ZM240 117.869C210.849 117.869 187.13 94.1505 187.13 64.9999C187.13 35.8493 210.849 12.1305 240 12.1305C269.15 12.1305 292.869 35.8493 292.869 64.9999C292.869 94.1505 269.15 117.869 240 117.869Z" fill="white"/>
<path d="M269.796 35.2091C268.989 34.3965 267.77 34.1628 266.729 34.6193L227.773 51.315C227.116 51.5933 226.593 52.1218 226.309 52.7787L209.614 91.7351C209.163 92.7815 209.397 93.9945 210.203 94.8016C210.738 95.3247 211.45 95.6085 212.173 95.6085C212.541 95.6085 212.914 95.5305 213.27 95.386L252.226 78.6903C252.883 78.4065 253.406 77.8835 253.69 77.2266L270.386 38.2702C270.831 37.2238 270.597 36.0105 269.796 35.2091ZM240 70.565C236.933 70.565 234.435 68.0662 234.435 64.9999C234.435 61.9334 236.933 59.4348 240 59.4348C243.066 59.4348 245.565 61.9337 245.565 64.9999C245.565 68.0662 243.066 70.565 240 70.565Z" fill="white"/>
<path d="M92.9614 206C91.9054 206 90.9294 205.744 90.0334 205.232C89.1694 204.72 88.4814 204.032 87.9694 203.168C87.4574 202.272 87.2014 201.296 87.2014 200.24V177.2C87.2014 176.144 87.4574 175.184 87.9694 174.32C88.4814 173.424 89.1694 172.72 90.0334 172.208C90.9294 171.696 91.9054 171.44 92.9614 171.44H116.001C117.057 171.44 118.017 171.696 118.881 172.208C119.777 172.72 120.481 173.424 120.993 174.32C121.505 175.184 121.761 176.144 121.761 177.2V200.24C121.761 201.296 121.505 202.272 120.993 203.168C120.481 204.032 119.777 204.72 118.881 205.232C118.017 205.744 117.057 206 116.001 206H92.9614ZM92.9614 202.112H116.001C116.513 202.112 116.945 201.936 117.297 201.584C117.681 201.2 117.873 200.752 117.873 200.24V177.2C117.873 176.688 117.681 176.256 117.297 175.904C116.945 175.52 116.513 175.328 116.001 175.328H92.9614C92.4494 175.328 92.0014 175.52 91.6174 175.904C91.2654 176.256 91.0894 176.688 91.0894 177.2V200.24C91.0894 200.752 91.2654 201.2 91.6174 201.584C92.0014 201.936 92.4494 202.112 92.9614 202.112ZM126.951 217.04V178.16H149.511C150.567 178.16 151.527 178.432 152.391 178.976C153.287 179.488 153.991 180.192 154.503 181.088C155.047 181.952 155.319 182.912 155.319 183.968V200.192C155.319 201.248 155.047 202.224 154.503 203.12C153.991 203.984 153.287 204.688 152.391 205.232C151.527 205.744 150.567 206 149.511 206H130.887V217.04H126.951ZM132.807 202.064H149.511C150.023 202.064 150.455 201.888 150.807 201.536C151.191 201.152 151.383 200.704 151.383 200.192V183.968C151.383 183.456 151.191 183.024 150.807 182.672C150.455 182.288 150.023 182.096 149.511 182.096H132.807C132.295 182.096 131.847 182.288 131.463 182.672C131.079 183.024 130.887 183.456 130.887 183.968V200.192C130.887 200.704 131.079 201.152 131.463 201.536C131.847 201.888 132.295 202.064 132.807 202.064ZM164.49 206C163.434 206 162.458 205.744 161.562 205.232C160.698 204.688 159.994 203.984 159.45 203.12C158.938 202.224 158.682 201.248 158.682 200.192V183.968C158.682 182.912 158.938 181.952 159.45 181.088C159.994 180.192 160.698 179.488 161.562 178.976C162.458 178.432 163.434 178.16 164.49 178.16H181.194C182.282 178.16 183.258 178.432 184.122 178.976C185.018 179.488 185.722 180.192 186.234 181.088C186.778 181.952 187.05 182.912 187.05 183.968V194.048H162.618V200.192C162.618 200.704 162.794 201.152 163.146 201.536C163.53 201.888 163.978 202.064 164.49 202.064H187.05V206H164.49ZM162.618 190.112H183.066V183.968C183.066 183.456 182.874 183.024 182.49 182.672C182.138 182.288 181.706 182.096 181.194 182.096H164.49C163.978 182.096 163.53 182.288 163.146 182.672C162.794 183.024 162.618 183.456 162.618 183.968V190.112ZM192.061 206V178.16H214.621C215.677 178.16 216.637 178.432 217.501 178.976C218.397 179.488 219.101 180.192 219.613 181.088C220.157 181.952 220.429 182.912 220.429 183.968V206H216.493V183.968C216.493 183.456 216.301 183.024 215.917 182.672C215.565 182.288 215.133 182.096 214.621 182.096H197.917C197.405 182.096 196.957 182.288 196.573 182.672C196.189 183.024 195.997 183.456 195.997 183.968V206H192.061ZM250.225 206L237.649 171.44H241.777L251.905 199.184L261.985 171.44H266.689L276.817 199.184L286.849 171.44H291.073L278.497 206H275.089L264.337 176.48L253.585 206H250.225ZM299.584 206C298.528 206 297.552 205.744 296.656 205.232C295.792 204.688 295.088 203.984 294.544 203.12C294.032 202.224 293.776 201.248 293.776 200.192V183.968C293.776 182.912 294.032 181.952 294.544 181.088C295.088 180.192 295.792 179.488 296.656 178.976C297.552 178.432 298.528 178.16 299.584 178.16H316.288C317.376 178.16 318.352 178.432 319.216 178.976C320.112 179.488 320.816 180.192 321.328 181.088C321.872 181.952 322.144 182.912 322.144 183.968V200.192C322.144 201.248 321.872 202.224 321.328 203.12C320.816 203.984 320.112 204.688 319.216 205.232C318.352 205.744 317.376 206 316.288 206H299.584ZM299.584 202.064H316.288C316.8 202.064 317.232 201.888 317.584 201.536C317.968 201.152 318.16 200.704 318.16 200.192V183.968C318.16 183.456 317.968 183.024 317.584 182.672C317.232 182.288 316.8 182.096 316.288 182.096H299.584C299.072 182.096 298.624 182.288 298.24 182.672C297.888 183.024 297.712 183.456 297.712 183.968V200.192C297.712 200.704 297.888 201.152 298.24 201.536C298.624 201.888 299.072 202.064 299.584 202.064ZM326.59 206V183.968C326.59 182.912 326.846 181.952 327.358 181.088C327.902 180.192 328.606 179.488 329.47 178.976C330.366 178.432 331.342 178.16 332.398 178.16H348.046V182.096H332.398C331.886 182.096 331.438 182.288 331.054 182.672C330.702 183.024 330.526 183.456 330.526 183.968V206H326.59ZM356.96 206C355.904 206 354.928 205.744 354.032 205.232C353.168 204.688 352.464 203.984 351.92 203.12C351.408 202.224 351.152 201.248 351.152 200.192V169.04H355.088V200.192C355.088 200.704 355.264 201.152 355.616 201.536C356 201.888 356.448 202.064 356.96 202.064H361.664V206H356.96ZM370.335 206C369.247 206 368.255 205.744 367.359 205.232C366.495 204.688 365.791 203.984 365.247 203.12C364.735 202.224 364.479 201.248 364.479 200.192V183.968C364.479 182.912 364.735 181.952 365.247 181.088C365.791 180.192 366.495 179.488 367.359 178.976C368.255 178.432 369.247 178.16 370.335 178.16H388.911V169.04H392.847V206H370.335ZM370.335 202.064H387.039C387.551 202.064 387.983 201.888 388.335 201.536C388.719 201.152 388.911 200.704 388.911 200.192V183.968C388.911 183.456 388.719 183.024 388.335 182.672C387.983 182.288 387.551 182.096 387.039 182.096H370.335C369.823 182.096 369.375 182.288 368.991 182.672C368.639 183.024 368.463 183.456 368.463 183.968V200.192C368.463 200.704 368.639 201.152 368.991 201.536C369.375 201.888 369.823 202.064 370.335 202.064Z" fill="white"/>
</svg>
