<svg width="480" height="187" viewBox="0 0 480 187" fill="none" xmlns="http://www.w3.org/2000/svg">
<path d="M240 119.666C209.856 119.666 185.333 95.1437 185.333 64.9997C185.333 34.8557 209.856 10.333 240 10.333C270.144 10.333 294.666 34.8557 294.666 64.9997C294.666 95.1437 270.144 119.666 240 119.666ZM240 20.9997C215.738 20.9997 196 40.7383 196 64.9997C196 89.261 215.738 109 240 109C264.261 109 284 89.261 284 64.9997C284 40.7383 264.261 20.9997 240 20.9997Z" fill="white"/>
<path d="M240 30.3333C237.056 30.3333 234.667 27.944 234.667 25V6.33333C234.667 3.38933 237.056 1 240 1C242.944 1 245.334 3.38933 245.334 6.33333V25C245.334 27.944 242.944 30.3333 240 30.3333Z" fill="white"/>
<path d="M298.667 70.3337H280C277.056 70.3337 274.667 67.9443 274.667 65.0003C274.667 62.0563 277.056 59.667 280 59.667H298.667C301.611 59.667 304 62.0563 304 65.0003C304 67.9443 301.611 70.3337 298.667 70.3337Z" fill="white"/>
<path d="M240 129C237.056 129 234.667 126.611 234.667 123.667V105C234.667 102.056 237.056 99.667 240 99.667C242.944 99.667 245.334 102.056 245.334 105V123.667C245.334 126.611 242.944 129 240 129Z" fill="white"/>
<path d="M200 70.3337H181.333C178.389 70.3337 176 67.9443 176 65.0003C176 62.0563 178.389 59.667 181.333 59.667H200C202.944 59.667 205.333 62.0563 205.333 65.0003C205.333 67.9443 202.944 70.3337 200 70.3337Z" fill="white"/>
<path d="M240 81C231.179 81 224 73.8213 224 65C224 56.1787 231.179 49 240 49C248.821 49 256 56.1787 256 65C256 73.8213 248.821 81 240 81ZM240 59.6667C237.061 59.6667 234.667 62.0613 234.667 65C234.667 67.9387 237.061 70.3333 240 70.3333C242.939 70.3333 245.333 67.9387 245.333 65C245.333 62.0613 242.939 59.6667 240 59.6667Z" fill="white"/>
<path d="M84.2158 174C83.1598 174 82.1838 173.744 81.2878 173.232C80.4238 172.72 79.7358 172.032 79.2238 171.168C78.7118 170.272 78.4558 169.296 78.4558 168.24V166.896H82.3438V168.24C82.3438 168.752 82.5198 169.2 82.8718 169.584C83.2558 169.936 83.7038 170.112 84.2158 170.112H107.256C107.768 170.112 108.2 169.936 108.552 169.584C108.936 169.2 109.128 168.752 109.128 168.24V160.512C109.128 160 108.936 159.568 108.552 159.216C108.2 158.864 107.768 158.688 107.256 158.688H84.2158C83.1598 158.688 82.1838 158.432 81.2878 157.92C80.4238 157.376 79.7358 156.672 79.2238 155.808C78.7118 154.944 78.4558 153.984 78.4558 152.928V145.2C78.4558 144.144 78.7118 143.184 79.2238 142.32C79.7358 141.424 80.4238 140.72 81.2878 140.208C82.1838 139.696 83.1598 139.44 84.2158 139.44H107.256C108.312 139.44 109.272 139.696 110.136 140.208C111.032 140.72 111.736 141.424 112.248 142.32C112.76 143.184 113.016 144.144 113.016 145.2V146.544H109.128V145.2C109.128 144.688 108.936 144.256 108.552 143.904C108.2 143.52 107.768 143.328 107.256 143.328H84.2158C83.7038 143.328 83.2558 143.52 82.8718 143.904C82.5198 144.256 82.3438 144.688 82.3438 145.2V152.928C82.3438 153.44 82.5198 153.872 82.8718 154.224C83.2558 154.576 83.7038 154.752 84.2158 154.752H107.256C108.312 154.752 109.272 155.024 110.136 155.568C111.032 156.08 111.736 156.768 112.248 157.632C112.76 158.496 113.016 159.456 113.016 160.512V168.24C113.016 169.296 112.76 170.272 112.248 171.168C111.736 172.032 111.032 172.72 110.136 173.232C109.272 173.744 108.312 174 107.256 174H84.2158ZM118.069 174V146.16H154.837C155.925 146.16 156.901 146.432 157.765 146.976C158.661 147.488 159.365 148.192 159.877 149.088C160.389 149.952 160.645 150.912 160.645 151.968V174H156.757V151.968C156.757 151.456 156.565 151.024 156.181 150.672C155.797 150.288 155.349 150.096 154.837 150.096H143.269C142.757 150.096 142.309 150.288 141.925 150.672C141.573 151.024 141.397 151.456 141.397 151.968V174H137.413V151.968C137.413 151.456 137.221 151.024 136.837 150.672C136.485 150.288 136.053 150.096 135.541 150.096H123.925C123.413 150.096 122.965 150.288 122.581 150.672C122.229 151.024 122.053 151.456 122.053 151.968V174H118.069ZM170.654 174C169.598 174 168.622 173.744 167.726 173.232C166.862 172.688 166.158 171.984 165.614 171.12C165.102 170.224 164.846 169.248 164.846 168.192V151.968C164.846 150.912 165.102 149.952 165.614 149.088C166.158 148.192 166.862 147.488 167.726 146.976C168.622 146.432 169.598 146.16 170.654 146.16H187.358C188.446 146.16 189.422 146.432 190.286 146.976C191.182 147.488 191.886 148.192 192.398 149.088C192.942 149.952 193.214 150.912 193.214 151.968V168.192C193.214 169.248 192.942 170.224 192.398 171.12C191.886 171.984 191.182 172.688 190.286 173.232C189.422 173.744 188.446 174 187.358 174H170.654ZM170.654 170.064H187.358C187.87 170.064 188.302 169.888 188.654 169.536C189.038 169.152 189.23 168.704 189.23 168.192V151.968C189.23 151.456 189.038 151.024 188.654 150.672C188.302 150.288 187.87 150.096 187.358 150.096H170.654C170.142 150.096 169.694 150.288 169.31 150.672C168.958 151.024 168.782 151.456 168.782 151.968V168.192C168.782 168.704 168.958 169.152 169.31 169.536C169.694 169.888 170.142 170.064 170.654 170.064ZM202.951 174C201.895 174 200.919 173.744 200.023 173.232C199.159 172.688 198.455 171.984 197.911 171.12C197.399 170.224 197.143 169.248 197.143 168.192V151.968C197.143 150.912 197.399 149.952 197.911 149.088C198.455 148.192 199.159 147.488 200.023 146.976C200.919 146.432 201.895 146.16 202.951 146.16H219.655C220.743 146.16 221.719 146.432 222.583 146.976C223.479 147.488 224.183 148.192 224.695 149.088C225.239 149.952 225.511 150.912 225.511 151.968V168.192C225.511 169.248 225.239 170.224 224.695 171.12C224.183 171.984 223.479 172.688 222.583 173.232C221.719 173.744 220.743 174 219.655 174H202.951ZM202.951 170.064H219.655C220.167 170.064 220.599 169.888 220.951 169.536C221.335 169.152 221.527 168.704 221.527 168.192V151.968C221.527 151.456 221.335 151.024 220.951 150.672C220.599 150.288 220.167 150.096 219.655 150.096H202.951C202.439 150.096 201.991 150.288 201.607 150.672C201.255 151.024 201.079 151.456 201.079 151.968V168.192C201.079 168.704 201.255 169.152 201.607 169.536C201.991 169.888 202.439 170.064 202.951 170.064ZM235.157 174C234.069 174 233.077 173.744 232.181 173.232C231.317 172.688 230.629 171.984 230.117 171.12C229.605 170.224 229.349 169.248 229.349 168.192V137.04H233.285V146.16H245.333V150.096H233.285V168.192C233.285 168.704 233.461 169.152 233.813 169.536C234.197 169.888 234.645 170.064 235.157 170.064H245.333V174H235.157ZM249.319 174V137.04H253.255V146.16H271.879C272.935 146.16 273.895 146.432 274.759 146.976C275.655 147.488 276.359 148.192 276.871 149.088C277.415 149.952 277.687 150.912 277.687 151.968V174H273.751V151.968C273.751 151.456 273.559 151.024 273.175 150.672C272.823 150.288 272.391 150.096 271.879 150.096H255.175C254.663 150.096 254.215 150.288 253.831 150.672C253.447 151.024 253.255 151.456 253.255 151.968V174H249.319ZM294.651 174V139.44H326.187V143.328H298.539V154.752H320.763V158.688H298.539V174H294.651ZM329.243 174V139.488H358.043C359.099 139.488 360.059 139.76 360.923 140.304C361.819 140.816 362.523 141.504 363.035 142.368C363.547 143.232 363.803 144.192 363.803 145.248V155.376C363.803 156.432 363.547 157.392 363.035 158.256C362.523 159.12 361.819 159.824 360.923 160.368C360.059 160.88 359.099 161.136 358.043 161.136H333.131V174H329.243ZM335.003 157.2H358.043C358.555 157.2 358.987 157.024 359.339 156.672C359.723 156.32 359.915 155.888 359.915 155.376V145.248C359.915 144.736 359.723 144.304 359.339 143.952C358.987 143.568 358.555 143.376 358.043 143.376H335.003C334.491 143.376 334.043 143.568 333.659 143.952C333.307 144.304 333.131 144.736 333.131 145.248V155.376C333.131 155.888 333.307 156.32 333.659 156.672C334.043 157.024 334.491 157.2 335.003 157.2ZM372.731 174C371.675 174 370.699 173.744 369.803 173.232C368.939 172.72 368.251 172.032 367.739 171.168C367.227 170.272 366.971 169.296 366.971 168.24V166.896H370.859V168.24C370.859 168.752 371.035 169.2 371.387 169.584C371.771 169.936 372.219 170.112 372.731 170.112H395.771C396.283 170.112 396.715 169.936 397.067 169.584C397.451 169.2 397.643 168.752 397.643 168.24V160.512C397.643 160 397.451 159.568 397.067 159.216C396.715 158.864 396.283 158.688 395.771 158.688H372.731C371.675 158.688 370.699 158.432 369.803 157.92C368.939 157.376 368.251 156.672 367.739 155.808C367.227 154.944 366.971 153.984 366.971 152.928V145.2C366.971 144.144 367.227 143.184 367.739 142.32C368.251 141.424 368.939 140.72 369.803 140.208C370.699 139.696 371.675 139.44 372.731 139.44H395.771C396.827 139.44 397.787 139.696 398.651 140.208C399.547 140.72 400.251 141.424 400.763 142.32C401.275 143.184 401.531 144.144 401.531 145.2V146.544H397.643V145.2C397.643 144.688 397.451 144.256 397.067 143.904C396.715 143.52 396.283 143.328 395.771 143.328H372.731C372.219 143.328 371.771 143.52 371.387 143.904C371.035 144.256 370.859 144.688 370.859 145.2V152.928C370.859 153.44 371.035 153.872 371.387 154.224C371.771 154.576 372.219 154.752 372.731 154.752H395.771C396.827 154.752 397.787 155.024 398.651 155.568C399.547 156.08 400.251 156.768 400.763 157.632C401.275 158.496 401.531 159.456 401.531 160.512V168.24C401.531 169.296 401.275 170.272 400.763 171.168C400.251 172.032 399.547 172.72 398.651 173.232C397.787 173.744 396.827 174 395.771 174H372.731Z" fill="white"/>
</svg>
