<svg width="480" height="219" viewBox="0 0 480 219" fill="none" xmlns="http://www.w3.org/2000/svg">
<path d="M187.503 129C193.709 129 201.262 124.32 209.951 115.09C215.24 109.472 222.316 106.25 229.367 106.25H250.634C257.737 106.25 265.088 109.555 270.299 115.09C279.111 124.45 286.371 129 292.497 129C295.921 129 303.897 127.175 303.999 110.273C304.104 92.9519 295.852 65.9912 283.4 53.4637C278.643 48.6775 273.596 46.2508 268.399 46.2508C261.896 46.2508 258.86 48.3225 256.181 50.1505C254.158 51.5302 252.238 52.8399 248.187 53.6009C249.863 50.9515 251.25 47.7442 251.25 44.3755C251.25 36.4282 243.534 29.3657 242.5 28.4558C240.855 26.9533 236.25 21.8609 236.25 17.8759C236.25 13.9452 240.859 8.99478 242.474 7.56905C244.028 6.20457 244.184 3.83885 242.822 2.28162C241.458 0.722893 239.089 0.565145 237.531 1.92888C236.632 2.71537 228.75 9.84377 228.75 17.8759C228.75 25.8673 236.585 33.2149 237.479 34.0264C237.496 34.0419 237.513 34.0574 237.531 34.0727C239.144 35.4844 243.75 40.4076 243.75 44.3753C243.75 47.6812 240.49 51.7082 238.496 53.7502H232.682C228.026 53.0199 225.981 51.6252 223.819 50.15C221.14 48.322 218.104 46.2503 211.6 46.2503C206.404 46.2503 201.357 48.677 196.6 53.4632C184.148 65.991 175.896 92.9516 176.001 110.272C176.103 127.175 184.079 129 187.503 129ZM201.919 58.7508C205.217 55.4329 208.474 53.7507 211.601 53.7507C215.789 53.7507 217.302 54.7832 219.593 56.3459C224.808 59.9043 229.929 61.2506 232.398 61.2506H247.602C250.163 61.2506 255.27 59.8511 260.407 56.3459C262.698 54.7832 264.211 53.7507 268.399 53.7507C271.525 53.7507 274.783 55.4329 278.081 58.7508C289.052 69.7887 296.593 94.7386 296.499 110.227C296.465 115.838 295.215 121.5 292.497 121.5C290.734 121.5 285.574 120.374 275.76 109.949C269.06 102.832 259.902 98.75 250.634 98.75H229.367C220.257 98.75 211.19 102.832 204.49 109.949C194.676 120.374 189.342 121.5 187.504 121.5C184.786 121.5 183.535 115.838 183.501 110.227C183.407 94.7386 190.948 69.7887 201.919 58.7508Z" fill="white"/>
<path d="M202.5 83.7498H206.25V87.4997C206.25 89.5707 207.929 91.2497 210 91.2497C212.071 91.2497 213.75 89.5707 213.75 87.4997V83.7498H217.5C219.571 83.7498 221.25 82.0708 221.25 79.9998C221.25 77.9289 219.571 76.2499 217.5 76.2499H213.75V72.4999C213.75 70.429 212.071 68.75 210 68.75C207.929 68.75 206.25 70.429 206.25 72.4999V76.2499H202.5C200.429 76.2499 198.75 77.9289 198.75 79.9998C198.75 82.0708 200.429 83.7498 202.5 83.7498Z" fill="white"/>
<path d="M269.999 76.25C272.07 76.25 273.749 74.5711 273.749 72.5C273.749 70.4289 272.07 68.75 269.999 68.75C267.928 68.75 266.249 70.4289 266.249 72.5C266.249 74.5711 267.928 76.25 269.999 76.25Z" fill="white"/>
<path d="M269.999 91.249C272.07 91.249 273.749 89.5701 273.749 87.499C273.749 85.428 272.07 83.749 269.999 83.749C267.928 83.749 266.249 85.428 266.249 87.499C266.249 89.5701 267.928 91.249 269.999 91.249Z" fill="white"/>
<path d="M262.5 83.75C264.571 83.75 266.25 82.0711 266.25 80C266.25 77.9289 264.571 76.25 262.5 76.25C260.429 76.25 258.75 77.9289 258.75 80C258.75 82.0711 260.429 83.75 262.5 83.75Z" fill="white"/>
<path d="M277.499 83.75C279.57 83.75 281.249 82.0711 281.249 80C281.249 77.9289 279.57 76.25 277.499 76.25C275.428 76.25 273.749 77.9289 273.749 80C273.749 82.0711 275.428 83.75 277.499 83.75Z" fill="white"/>
<path d="M232.5 83.7499H247.5C249.571 83.7499 251.25 82.0709 251.25 79.9999C251.25 77.929 249.571 76.25 247.5 76.25H232.5C230.429 76.25 228.75 77.929 228.75 79.9999C228.75 82.0709 230.429 83.7499 232.5 83.7499Z" fill="white"/>
<path d="M97.7974 206V171.44H103.125L117.477 188.528L131.829 171.44H137.157V206H133.269V175.856L117.477 194.624L101.685 175.856V206H97.7974ZM147.993 206C146.937 206 145.961 205.744 145.065 205.232C144.201 204.688 143.497 203.984 142.953 203.12C142.441 202.224 142.185 201.248 142.185 200.192V178.16H146.121V200.192C146.121 200.704 146.297 201.152 146.649 201.536C147.033 201.888 147.481 202.064 147.993 202.064H164.697C165.209 202.064 165.657 201.888 166.041 201.536C166.425 201.152 166.617 200.704 166.617 200.192V178.16H170.553V200.192C170.553 201.248 170.281 202.224 169.737 203.12C169.225 203.984 168.521 204.688 167.625 205.232C166.761 205.744 165.785 206 164.697 206H147.993ZM181.32 206C180.264 206 179.288 205.744 178.392 205.232C177.528 204.688 176.824 203.984 176.28 203.12C175.768 202.224 175.512 201.248 175.512 200.192V169.04H179.448V200.192C179.448 200.704 179.624 201.152 179.976 201.536C180.36 201.888 180.808 202.064 181.32 202.064H186.024V206H181.32ZM195.852 206C194.764 206 193.772 205.744 192.876 205.232C192.012 204.688 191.324 203.984 190.812 203.12C190.3 202.224 190.044 201.248 190.044 200.192V169.04H193.98V178.16H206.028V182.096H193.98V200.192C193.98 200.704 194.156 201.152 194.508 201.536C194.892 201.888 195.34 202.064 195.852 202.064H206.028V206H195.852ZM209.918 206V178.16H213.854V206H209.918ZM209.918 172.976V169.04H213.854V172.976H209.918ZM218.78 217.04V178.16H241.34C242.396 178.16 243.356 178.432 244.22 178.976C245.116 179.488 245.82 180.192 246.332 181.088C246.876 181.952 247.148 182.912 247.148 183.968V200.192C247.148 201.248 246.876 202.224 246.332 203.12C245.82 203.984 245.116 204.688 244.22 205.232C243.356 205.744 242.396 206 241.34 206H222.716V217.04H218.78ZM224.636 202.064H241.34C241.852 202.064 242.284 201.888 242.635 201.536C243.02 201.152 243.212 200.704 243.212 200.192V183.968C243.212 183.456 243.02 183.024 242.635 182.672C242.284 182.288 241.852 182.096 241.34 182.096H224.636C224.124 182.096 223.676 182.288 223.292 182.672C222.908 183.024 222.716 183.456 222.716 183.968V200.192C222.716 200.704 222.908 201.152 223.292 201.536C223.676 201.888 224.124 202.064 224.636 202.064ZM256.367 206C255.311 206 254.335 205.744 253.439 205.232C252.575 204.688 251.871 203.984 251.327 203.12C250.815 202.224 250.559 201.248 250.559 200.192V169.04H254.495V200.192C254.495 200.704 254.671 201.152 255.023 201.536C255.407 201.888 255.855 202.064 256.367 202.064H261.071V206H256.367ZM270.382 206C269.326 206 268.35 205.744 267.454 205.232C266.59 204.688 265.886 203.984 265.342 203.12C264.83 202.224 264.574 201.248 264.574 200.192V190.112H288.958V183.968C288.958 183.456 288.766 183.024 288.382 182.672C288.03 182.288 287.598 182.096 287.086 182.096H264.574V178.16H287.086C288.174 178.16 289.15 178.432 290.014 178.976C290.91 179.488 291.614 180.192 292.126 181.088C292.67 181.952 292.942 182.912 292.942 183.968V206H270.382ZM270.382 202.064H288.958V194.048H268.51V200.192C268.51 200.704 268.686 201.152 269.038 201.536C269.422 201.888 269.87 202.064 270.382 202.064ZM302.558 217.04V213.056H319.934C320.446 213.056 320.878 212.864 321.23 212.48C321.614 212.128 321.806 211.696 321.806 211.184V206H303.23C302.174 206 301.198 205.744 300.302 205.232C299.438 204.688 298.734 203.984 298.19 203.12C297.678 202.224 297.422 201.248 297.422 200.192V178.256H301.358V200.192C301.358 200.704 301.534 201.152 301.886 201.536C302.27 201.888 302.718 202.064 303.23 202.064H319.934C320.446 202.064 320.878 201.888 321.23 201.536C321.614 201.152 321.806 200.704 321.806 200.192V178.256H325.742V211.184C325.742 212.272 325.486 213.248 324.974 214.112C324.462 215.008 323.758 215.712 322.862 216.224C321.998 216.768 321.022 217.04 319.934 217.04H302.558ZM335.584 206C334.528 206 333.552 205.744 332.656 205.232C331.792 204.688 331.088 203.984 330.544 203.12C330.032 202.224 329.776 201.248 329.776 200.192V183.968C329.776 182.912 330.032 181.952 330.544 181.088C331.088 180.192 331.792 179.488 332.656 178.976C333.552 178.432 334.528 178.16 335.584 178.16H352.288C353.376 178.16 354.352 178.432 355.216 178.976C356.112 179.488 356.816 180.192 357.328 181.088C357.872 181.952 358.144 182.912 358.144 183.968V194.048H333.712V200.192C333.712 200.704 333.888 201.152 334.24 201.536C334.624 201.888 335.072 202.064 335.584 202.064H358.144V206H335.584ZM333.712 190.112H354.16V183.968C354.16 183.456 353.968 183.024 353.584 182.672C353.232 182.288 352.8 182.096 352.288 182.096H335.584C335.072 182.096 334.624 182.288 334.24 182.672C333.888 183.024 333.712 183.456 333.712 183.968V190.112ZM362.824 206V183.968C362.824 182.912 363.08 181.952 363.592 181.088C364.136 180.192 364.84 179.488 365.704 178.976C366.6 178.432 367.576 178.16 368.632 178.16H384.28V182.096H368.632C368.12 182.096 367.672 182.288 367.288 182.672C366.936 183.024 366.76 183.456 366.76 183.968V206H362.824Z" fill="white"/>
</svg>
