<svg width="105" height="23" viewBox="0 0 105 23" fill="none" xmlns="http://www.w3.org/2000/svg">
<path d="M4.7872 3.0958V22H0.995499V3.0958H4.7872ZM16.848 6.7792C18.6355 6.7792 20.0799 7.3479 21.1813 8.4854C22.2827 9.6049 22.8334 11.1757 22.8334 13.1979V22H19.0417V13.7125C19.0417 12.5208 18.7438 11.609 18.148 10.9771C17.5521 10.3271 16.7396 10.0021 15.7105 10.0021C14.6632 10.0021 13.8327 10.3271 13.2188 10.9771C12.623 11.609 12.3251 12.5208 12.3251 13.7125V22H8.5334V6.9958H12.3251V8.8646C12.8306 8.2146 13.4716 7.709 14.248 7.3479C15.0424 6.9687 15.9091 6.7792 16.848 6.7792ZM33.3182 10.1104H30.6911V22H26.8453V10.1104H25.1391V6.9958H26.8453V6.2375C26.8453 4.3958 27.3689 3.0417 28.4161 2.175C29.4634 1.3083 31.0432 0.902101 33.1557 0.956301V4.1521C32.2349 4.134 31.5939 4.2875 31.2328 4.6125C30.8717 4.9375 30.6911 5.5243 30.6911 6.3729V6.9958H33.3182V10.1104ZM37.6983 5.2083C37.0303 5.2083 36.4705 5.0007 36.0192 4.5854C35.5858 4.1521 35.3692 3.6194 35.3692 2.9875C35.3692 2.3556 35.5858 1.8319 36.0192 1.4167C36.4705 0.983301 37.0303 0.766701 37.6983 0.766701C38.3664 0.766701 38.9171 0.983301 39.3504 1.4167C39.8018 1.8319 40.0275 2.3556 40.0275 2.9875C40.0275 3.6194 39.8018 4.1521 39.3504 4.5854C38.9171 5.0007 38.3664 5.2083 37.6983 5.2083ZM39.5671 6.9958V22H35.7754V6.9958H39.5671ZM51.628 6.7792C53.415 6.7792 54.86 7.3479 55.961 8.4854C57.063 9.6049 57.613 11.1757 57.613 13.1979V22H53.822V13.7125C53.822 12.5208 53.524 11.609 52.928 10.9771C52.332 10.3271 51.52 10.0021 50.49 10.0021C49.443 10.0021 48.613 10.3271 47.999 10.9771C47.403 11.609 47.105 12.5208 47.105 13.7125V22H43.3133V6.9958H47.105V8.8646C47.61 8.2146 48.251 7.709 49.028 7.3479C49.822 6.9687 50.689 6.7792 51.628 6.7792ZM63.142 5.2083C62.474 5.2083 61.914 5.0007 61.463 4.5854C61.029 4.1521 60.813 3.6194 60.813 2.9875C60.813 2.3556 61.029 1.8319 61.463 1.4167C61.914 0.983301 62.474 0.766701 63.142 0.766701C63.81 0.766701 64.361 0.983301 64.794 1.4167C65.245 1.8319 65.471 2.3556 65.471 2.9875C65.471 3.6194 65.245 4.1521 64.794 4.5854C64.361 5.0007 63.81 5.2083 63.142 5.2083ZM65.011 6.9958V22H61.219V6.9958H65.011ZM72.223 18.8854H78.913V22H67.917V18.9396L74.471 10.1104H67.944V6.9958H78.832V10.0563L72.223 18.8854ZM80.874 14.4437C80.874 12.9271 81.172 11.5819 81.768 10.4083C82.381 9.2347 83.203 8.3319 84.232 7.7C85.279 7.0681 86.444 6.7521 87.726 6.7521C88.845 6.7521 89.82 6.9778 90.651 7.4292C91.5 7.8806 92.177 8.4493 92.682 9.1354V6.9958H96.501V22H92.682V19.8063C92.195 20.5104 91.518 21.0972 90.651 21.5667C89.802 22.0181 88.818 22.2438 87.699 22.2438C86.435 22.2438 85.279 21.9188 84.232 21.2688C83.203 20.6188 82.381 19.7069 81.768 18.5333C81.172 17.3417 80.874 15.9785 80.874 14.4437ZM92.682 14.4979C92.682 13.5771 92.502 12.7917 92.14 12.1417C91.779 11.4736 91.292 10.9681 90.678 10.625C90.064 10.2639 89.405 10.0833 88.701 10.0833C87.997 10.0833 87.347 10.2549 86.751 10.5979C86.155 10.941 85.668 11.4465 85.288 12.1146C84.927 12.7646 84.747 13.541 84.747 14.4437C84.747 15.3465 84.927 16.141 85.288 16.8271C85.668 17.4951 86.155 18.0097 86.751 18.3708C87.365 18.7319 88.015 18.9125 88.701 18.9125C89.405 18.9125 90.064 18.741 90.678 18.3979C91.292 18.0368 91.779 17.5312 92.14 16.8812C92.502 16.2132 92.682 15.4188 92.682 14.4979ZM102.127 5.2083C101.459 5.2083 100.899 5.0007 100.448 4.5854C100.015 4.1521 99.798 3.6194 99.798 2.9875C99.798 2.3556 100.015 1.8319 100.448 1.4167C100.899 0.983301 101.459 0.766701 102.127 0.766701C102.795 0.766701 103.346 0.983301 103.779 1.4167C104.231 1.8319 104.456 2.3556 104.456 2.9875C104.456 3.6194 104.231 4.1521 103.779 4.5854C103.346 5.0007 102.795 5.2083 102.127 5.2083ZM103.996 6.9958V22H100.204V6.9958H103.996Z" fill="white"/>
</svg>
